<svg width="32" height="32" viewBox="0 0 32 32" fill="none" xmlns="http://www.w3.org/2000/svg">
<g clip-path="url(#clip0_211_491)">
<path opacity="0.5" d="M16 32C24.8366 32 32 24.8366 32 16C32 7.16344 24.8366 0 16 0C7.16344 0 0 7.16344 0 16C0 24.8366 7.16344 32 16 32Z" fill="#8D8E8E"/>
<path d="M19.6778 15.9846H17.305V24H13.7098V15.9846H12V13.1677H13.7098V11.3448C13.7098 10.0412 14.3814 8 17.337 8L20 8.01027V10.7446H18.0678C17.7509 10.7446 17.3052 10.8906 17.3052 11.5124V13.1703H19.9919L19.6778 15.9846Z" fill="white"/>
</g>
<defs>
<clipPath id="clip0_211_491">
<rect width="32" height="32" fill="white"/>
</clipPath>
</defs>
</svg>
