<svg width="25" height="30" viewBox="0 0 25 30" fill="none" xmlns="http://www.w3.org/2000/svg">
<path d="M2.77816 0C1.23628 0 0 1.23628 0 2.77816V25.0035C0 25.7403 0.292698 26.4469 0.813705 26.9679C1.33471 27.4889 2.04135 27.7816 2.77816 27.7816H8.33449V25.1285L11.2377 22.2253H2.77816V19.4471H14.0158L16.794 16.669H2.77816V13.8908H19.5722L22.2253 11.2377V8.33449L13.8908 0H2.77816ZM12.5017 2.08362L20.1417 9.72357H12.5017V2.08362ZM22.4337 15.2799C22.2253 15.2799 22.0308 15.3494 21.878 15.5022L20.4612 16.919L23.3644 19.8083L24.7812 18.4053C25.0729 18.0997 25.0729 17.5997 24.7812 17.308L22.9754 15.5022C22.8226 15.3494 22.6281 15.2799 22.4337 15.2799ZM19.6416 17.7386L11.1127 26.2814V29.1707H14.0019L22.5448 20.6279L19.6416 17.7386Z" fill="#24A1DF"/>
</svg>
