<svg width="32" height="32" viewBox="0 0 32 32" fill="none" xmlns="http://www.w3.org/2000/svg">
<g clip-path="url(#clip0_211_496)">
<path opacity="0.5" d="M16 32C24.8366 32 32 24.8366 32 16C32 7.16344 24.8366 0 16 0C7.16344 0 0 7.16344 0 16C0 24.8366 7.16344 32 16 32Z" fill="#8D8E8E"/>
<path fill-rule="evenodd" clip-rule="evenodd" d="M7.05408 12.0696C7.03654 12.2058 7.01899 12.3421 7 12.478V19.5192C7.01045 19.5915 7.02247 19.6637 7.03448 19.7359C7.06037 19.8916 7.08627 20.0473 7.09657 20.204C7.27114 22.8551 9.07538 24.8189 11.6854 24.9184C14.5716 25.0283 17.4678 25.0256 20.3542 24.9199C22.9642 24.8244 24.8535 22.8653 24.9349 20.2182C25.0217 17.4073 25.0217 14.5897 24.9349 11.7788C24.8535 9.13173 22.9636 7.17233 20.354 7.07706C17.4676 6.9716 14.572 6.97692 11.6852 7.0775C9.28753 7.16125 7.61066 8.79541 7.18091 11.1973C7.12923 11.4863 7.09166 11.7779 7.05408 12.0696ZM17.2288 23.3588C16.82 23.355 16.4112 23.3511 16.0024 23.3511C15.599 23.3511 15.1955 23.3549 14.7919 23.3588C13.8906 23.3673 12.9893 23.3758 12.0896 23.3418C10.0376 23.2647 8.76165 22.0387 8.70593 19.9669C8.63514 17.3229 8.63514 14.6743 8.70593 12.0303C8.76165 9.95833 10.0376 8.70324 12.0894 8.65959C14.7136 8.60376 17.3407 8.60332 19.9649 8.65959C22.0324 8.70413 23.3055 9.98514 23.3538 12.0801C23.4136 14.6913 23.4136 17.3059 23.3538 19.9169C23.3055 22.0123 22.0333 23.2641 19.9649 23.3418C19.0538 23.3759 18.1413 23.3674 17.2288 23.3588Z" fill="white"/>
<path fill-rule="evenodd" clip-rule="evenodd" d="M11.4141 15.9988C11.4141 13.4301 13.4679 11.3477 16.001 11.3477C18.5343 11.3477 20.5879 13.4301 20.5879 15.9988C20.5879 18.5676 18.5343 20.65 16.001 20.65C13.4679 20.65 11.4141 18.5676 11.4141 15.9988ZM12.9934 15.9987C12.9934 17.6832 14.3399 19.0486 16.001 19.0486C17.6622 19.0486 19.0087 17.6832 19.0087 15.9987C19.0087 14.3143 17.6622 12.9489 16.001 12.9489C14.3399 12.9489 12.9934 14.3143 12.9934 15.9987Z" fill="white"/>
<path d="M21.9462 11.1379C21.9462 11.7489 21.4576 12.2444 20.8551 12.2444C20.2525 12.2444 19.7637 11.7489 19.7637 11.1379C19.7637 10.5266 20.2525 10.0312 20.8551 10.0312C21.4576 10.0312 21.9462 10.5266 21.9462 11.1379Z" fill="white"/>
</g>
<defs>
<clipPath id="clip0_211_496">
<rect width="32" height="32" fill="white"/>
</clipPath>
</defs>
</svg>
