<svg width="32" height="32" viewBox="0 0 32 32" fill="none" xmlns="http://www.w3.org/2000/svg">
<g clip-path="url(#clip0_211_486)">
<path opacity="0.5" fill-rule="evenodd" clip-rule="evenodd" d="M16 32C24.8366 32 32 24.8366 32 16C32 7.16344 24.8366 0 16 0C7.16344 0 0 7.16344 0 16C0 24.8366 7.16344 32 16 32Z" fill="#8D8E8E"/>
<path fill-rule="evenodd" clip-rule="evenodd" d="M22.0134 23.2562L24.9803 9.078C25.1256 8.38346 24.4421 7.80484 23.7807 8.06246L6.40359 14.8312C5.84074 15.0504 5.8749 15.8578 6.45422 16.0288L10.8699 17.3321L12.5179 22.5589C12.69 23.1049 13.3822 23.2704 13.7829 22.8615L16.0659 20.5314L20.5453 23.8181C21.0935 24.2203 21.8742 23.9215 22.0134 23.2562ZM11.82 16.6313L21.3516 10.8233C21.5709 10.6897 21.7953 10.9862 21.6021 11.154L13.5305 18.1664C13.45 18.2363 13.3988 18.3331 13.3869 18.438L13.0761 21.152C13.066 21.2405 12.9398 21.2522 12.913 21.1672L11.6344 17.1196C11.5758 16.9343 11.6522 16.7335 11.82 16.6313Z" fill="white"/>
</g>
<defs>
<clipPath id="clip0_211_486">
<rect width="32" height="32" fill="white"/>
</clipPath>
</defs>
</svg>
