<svg width="24" height="24" viewBox="0 0 20 20" fill="none" xmlns="http://www.w3.org/2000/svg">
<path d="M19.9268 10.2823C19.9345 10.2679 19.9415 10.2532 19.948 10.2381C19.9584 10.2137 19.9669 10.1888 19.9739 10.1635C19.9779 10.1497 19.9823 10.1361 19.9853 10.1221C19.9938 10.0819 19.999 10.0412 19.999 10.0003C19.999 9.95946 19.9935 9.91879 19.9853 9.87857C19.9823 9.86435 19.9779 9.85101 19.9739 9.83724C19.9667 9.8119 19.9584 9.78701 19.948 9.76257C19.9415 9.74746 19.9343 9.73279 19.9266 9.71835C19.9151 9.69635 19.9019 9.67524 19.8877 9.65435C19.878 9.64035 19.8685 9.62635 19.8578 9.61301C19.8528 9.60701 19.8496 9.60035 19.8444 9.59435L16.9283 6.20679C16.677 5.91502 16.2075 5.8599 15.8805 6.08435C15.5535 6.30857 15.4917 6.72724 15.7433 7.01924L17.7362 9.33346H6.11629C5.70361 9.33346 5.36914 9.6319 5.36914 10.0001C5.36914 10.3683 5.70361 10.6668 6.11629 10.6668H17.7359L15.7433 12.981C15.4917 13.273 15.5533 13.6915 15.8805 13.9159C16.0162 14.009 16.1764 14.0539 16.3353 14.0539C16.5594 14.0539 16.7811 13.9643 16.9283 13.7935L19.8446 10.4063C19.8498 10.4003 19.8533 10.3937 19.8583 10.3875C19.869 10.3741 19.8782 10.3603 19.8879 10.3466C19.9021 10.3255 19.9153 10.3043 19.9268 10.2823Z" fill="white"/>
<path d="M13.4708 20H0.747147C0.334473 20 0 19.7016 0 19.3333V0.666667C0 0.298444 0.334473 0 0.747147 0H13.4708C13.8835 0 14.218 0.298444 14.218 0.666667V7.34533C14.218 7.71356 13.8835 8.012 13.4708 8.012C13.0581 8.012 12.7237 7.71356 12.7237 7.34533V1.33333H1.49429V18.6667H12.7237V12.3578C12.7237 11.9896 13.0581 11.6911 13.4708 11.6911C13.8835 11.6911 14.218 11.9896 14.218 12.3578V19.3333C14.218 19.7016 13.8837 20 13.4708 20Z" fill="white"/>
</svg>
