<svg width="21" height="15" viewBox="0 0 21 15" fill="none" xmlns="http://www.w3.org/2000/svg">
<g clip-path="url(#clip0_211_538)">
<path d="M1.91547 0.640625H19.9057C20.1708 0.640625 20.425 0.723213 20.6125 0.870221C20.7999 1.01723 20.9052 1.21661 20.9052 1.42451V13.9668C20.9052 14.1746 20.7999 14.374 20.6125 14.521C20.425 14.668 20.1708 14.7506 19.9057 14.7506H1.91547C1.6504 14.7506 1.39618 14.668 1.20875 14.521C1.02132 14.374 0.916016 14.1746 0.916016 13.9668V1.42451C0.916016 1.21661 1.02132 1.01723 1.20875 0.870221C1.39618 0.723213 1.6504 0.640625 1.91547 0.640625ZM10.9706 7.44711L4.56204 3.17886L3.26774 4.3735L10.9836 9.51188L18.5605 4.36959L17.2532 3.18356L10.9716 7.44711H10.9706Z" fill="white"/>
</g>
<defs>
<clipPath id="clip0_211_538">
<rect width="19.9892" height="14.11" fill="white" transform="translate(0.916016 0.640625)"/>
</clipPath>
</defs>
</svg>
