<svg width="20" height="20" viewBox="0 0 20 20" fill="none" xmlns="http://www.w3.org/2000/svg">
<g clip-path="url(#clip0_211_550)">
<path d="M10 20C15.5229 20 20 15.5229 20 10C20 4.47715 15.5229 0 10 0C4.47715 0 0 4.47715 0 10C0 15.5229 4.47715 20 10 20Z" fill="white"/>
<path d="M10 20C15.5229 20 20 15.5229 20 10C20 4.47715 15.5229 0 10 0C4.47715 0 0 4.47715 0 10C0 15.5229 4.47715 20 10 20Z" fill="white"/>
<path d="M12.5587 9.74086H11.1498V14.5H9.01519V9.74086H8V8.06832H9.01519V6.98598C9.01519 6.21196 9.41396 5 11.1688 5L12.75 5.0061V6.62961H11.6028C11.4146 6.62961 11.15 6.71629 11.15 7.08549V8.06987H12.7452L12.5587 9.74086Z" fill="#390368"/>
</g>
<defs>
<clipPath id="clip0_211_550">
<rect width="20" height="20" fill="white"/>
</clipPath>
</defs>
</svg>
