<svg width="21" height="20" viewBox="0 0 21 20" fill="none" xmlns="http://www.w3.org/2000/svg">
<g clip-path="url(#clip0_211_528)">
<path d="M10.8008 20C16.3237 20 20.8008 15.5229 20.8008 10C20.8008 4.47715 16.3237 0 10.8008 0C5.27793 0 0.800781 4.47715 0.800781 10C0.800781 15.5229 5.27793 20 10.8008 20Z" fill="white"/>
<path d="M10.8008 20C16.3237 20 20.8008 15.5229 20.8008 10C20.8008 4.47715 16.3237 0 10.8008 0C5.27793 0 0.800781 4.47715 0.800781 10C0.800781 15.5229 5.27793 20 10.8008 20Z" fill="white"/>
<path d="M4.52414 10.488C5.69314 9.84409 6.99806 9.30666 8.2173 8.76647C10.3149 7.88172 12.4208 7.01234 14.548 6.20292C14.9619 6.06501 15.7055 5.93016 15.7784 6.54347C15.7384 7.41166 15.5742 8.27472 15.4615 9.13778C15.1756 11.0358 14.8451 12.9273 14.5228 14.819C14.4117 15.4492 13.6224 15.7754 13.1173 15.3722C11.9035 14.5522 10.6803 13.7403 9.48199 12.9014C9.08943 12.5025 9.45343 11.9297 9.80399 11.6449C10.8037 10.6597 11.864 9.82253 12.8115 8.78634C13.0671 8.16922 12.3119 8.68934 12.0628 8.84872C10.6942 9.79191 9.35899 10.7927 7.91599 11.6215C7.17893 12.0273 6.31983 11.6805 5.58308 11.4542C4.92251 11.1807 3.95456 10.905 4.52414 10.488Z" fill="#390368"/>
</g>
<defs>
<clipPath id="clip0_211_528">
<rect width="20" height="20" fill="white" transform="translate(0.800781)"/>
</clipPath>
</defs>
</svg>
