<svg width="1215" height="177" viewBox="0 0 1215 177" fill="none" xmlns="http://www.w3.org/2000/svg">
<path d="M1159.94 167.168L1164.86 175.74L1162.45 176.988L1158.5 170.102L1149.43 171.827L1144.99 164.098L1135.92 165.822L1131 157.248L1133.41 156L1137.36 162.889L1146.43 161.164L1150.87 168.893L1159.94 167.168Z" fill="white"/>
<path d="M1124.81 87.1301L1130.51 106.582L1109.96 101.548L1124.81 87.1301Z" fill="white"/>
<path d="M90.8522 65.9973L96.5449 85.4492L75.9993 80.4153L90.8522 65.9973Z" fill="white"/>
<path d="M1205.47 100.729C1206.63 98.3614 1209.59 97.3382 1212.08 98.4456C1214.56 99.5501 1215.63 102.365 1214.47 104.733C1213.31 107.101 1210.35 108.125 1207.87 107.02C1205.38 105.913 1204.31 103.097 1205.47 100.729Z" fill="white"/>
<path d="M1191.19 15.5671L1184.29 15.2853L1184 21.6858L1190.9 21.9685L1190.6 28.5373L1197.32 28.8125L1197.62 22.2437L1204.52 22.5265L1204.81 16.1279L1197.92 15.8452L1198.21 9.27448L1191.49 8.9993L1191.19 15.5671Z" fill="white"/>
<path d="M101.272 161.997L112.678 169.983L110.432 172.884L101.272 166.467L90.9797 173.668L80.697 166.467L70.4043 173.667L58.9989 165.683L61.2343 162.782L70.4043 169.2L80.697 161.997L90.9797 169.199L101.272 161.997Z" fill="white"/>
<path d="M5.06925 16.3091C6.39061 16.3091 7.46362 15.2858 7.46362 14.029C7.46362 12.7722 6.39061 11.7499 5.06925 11.7499C3.7479 11.7499 2.67488 12.7722 2.67488 14.029C2.67488 15.2858 3.7479 16.3091 5.06925 16.3091ZM5.06925 9.28166C7.82125 9.28166 10.0566 11.4113 10.0566 14.029C10.0566 16.6476 7.82125 18.7773 5.06925 18.7773C2.31726 18.7773 0.0818615 16.6476 0.0818615 14.029C0.0818615 11.4113 2.31726 9.28166 5.06925 9.28166Z" fill="white"/>
<path d="M137.987 7.02785C139.309 7.02785 140.382 6.0046 140.382 4.74777C140.382 3.49095 139.309 2.46865 137.987 2.46865C136.666 2.46865 135.593 3.49095 135.593 4.74777C135.593 6.0046 136.666 7.02785 137.987 7.02785ZM137.987 0.000405312C140.739 0.000405312 142.975 2.1301 142.975 4.74777C142.975 7.3664 140.739 9.49609 137.987 9.49609C135.235 9.49609 133 7.3664 133 4.74777C133 2.1301 135.235 0.000405312 137.987 0.000405312Z" fill="white"/>
<path d="M23.9872 121.028C25.3086 121.028 26.3816 120.005 26.3816 118.748C26.3816 117.491 25.3086 116.469 23.9872 116.469C22.6659 116.469 21.5929 117.491 21.5929 118.748C21.5929 120.005 22.6659 121.028 23.9872 121.028ZM23.9872 114C26.7392 114 28.9746 116.13 28.9746 118.748C28.9746 121.366 26.7392 123.496 23.9872 123.496C21.2352 123.496 18.9998 121.366 18.9998 118.748C18.9998 116.13 21.2352 114 23.9872 114Z" fill="white"/>
<path d="M1092.99 16.0278C1094.31 16.0278 1095.38 15.0046 1095.38 13.7478C1095.38 12.4909 1094.31 11.4686 1092.99 11.4686C1091.67 11.4686 1090.59 12.4909 1090.59 13.7478C1090.59 15.0046 1091.67 16.0278 1092.99 16.0278ZM1092.99 9.00041C1095.74 9.00041 1097.97 11.1301 1097.97 13.7478C1097.97 16.3664 1095.74 18.4961 1092.99 18.4961C1090.24 18.4961 1088 16.3664 1088 13.7478C1088 11.1301 1090.24 9.00041 1092.99 9.00041Z" fill="white"/>
</svg>
