<svg width="50" height="50" viewBox="0 0 50 50" fill="none" xmlns="http://www.w3.org/2000/svg">
<rect x="0.5" y="0.5" width="49" height="49" rx="9.5" stroke="#FEFEFE"/>
<path d="M33.3333 15.2749H16.6667C16.2248 15.2753 15.8011 15.4259 15.4886 15.6937C15.1762 15.9616 15.0004 16.3247 15 16.7035V25.9892C14.9981 27.4137 15.4489 28.8118 16.304 30.0333C17.159 31.2549 18.3861 32.2538 19.8533 32.9228L25 35.2749L30.1467 32.9228C31.6139 32.2538 32.841 31.2549 33.696 30.0333C34.5511 28.8118 35.0019 27.4137 35 25.9892V16.7035C34.9996 16.3247 34.8238 15.9616 34.5114 15.6937C34.1989 15.4259 33.7752 15.2753 33.3333 15.2749ZM30.8333 26.7035H19.1667V25.2749H30.8333V26.7035ZM30.8333 22.4178H19.1667V20.9892H30.8333V22.4178Z" fill="#F6F6F6"/>
</svg>
