<svg width="1298" height="238" viewBox="0 0 1298 238" fill="none" xmlns="http://www.w3.org/2000/svg">
<path d="M78.6209 11.2746L73.6719 2.21062L76.0959 0.890625L80.0699 8.17262L89.2009 6.34862L93.6629 14.5216L102.793 12.6976L107.749 21.7646L105.325 23.0846L101.345 15.7996L92.2139 17.6236L87.7519 9.45062L78.6209 11.2746Z" fill="white"/>
<path d="M164.956 117.721L159.223 97.1523L179.905 102.475L164.956 117.721Z" fill="white"/>
<path d="M1205.95 117.721L1200.22 97.1523L1220.9 102.475L1205.95 117.721Z" fill="white"/>
<path d="M10.5198 99.5128C9.34981 102.017 6.3738 103.099 3.8678 101.928C1.3668 100.76 0.286785 97.7828 1.45579 95.2788C2.62579 92.7758 5.60179 91.6928 8.10279 92.8608C10.6098 94.0318 11.6888 97.0088 10.5198 99.5128Z" fill="white"/>
<path d="M43.1594 200.065L50.1034 200.363L50.3934 193.595L43.4494 193.296L43.7494 186.35L36.9834 186.059L36.6834 193.005L29.7394 192.706L29.4434 199.472L36.3874 199.771L36.0934 206.719L42.8594 207.01L43.1594 200.065Z" fill="white"/>
<path d="M1237.48 16.341L1226 7.897L1228.26 4.82899L1237.48 11.615L1247.84 4L1258.19 11.615L1268.55 4.00101L1280.03 12.444L1277.78 15.511L1268.55 8.72501L1258.19 16.341L1247.84 8.726L1237.48 16.341Z" fill="white"/>
<path d="M1292.02 192.61C1290.69 192.61 1289.61 193.692 1289.61 195.021C1289.61 196.35 1290.69 197.431 1292.02 197.431C1293.35 197.431 1294.43 196.35 1294.43 195.021C1294.43 193.692 1293.35 192.61 1292.02 192.61ZM1292.02 200.041C1289.25 200.041 1287 197.789 1287 195.021C1287 192.252 1289.25 190 1292.02 190C1294.79 190 1297.04 192.252 1297.04 195.021C1297.04 197.789 1294.79 200.041 1292.02 200.041Z" fill="white"/>
<path d="M1057.02 229.61C1055.69 229.61 1054.61 230.692 1054.61 232.021C1054.61 233.35 1055.69 234.431 1057.02 234.431C1058.35 234.431 1059.43 233.35 1059.43 232.021C1059.43 230.692 1058.35 229.61 1057.02 229.61ZM1057.02 237.041C1054.25 237.041 1052 234.789 1052 232.021C1052 229.252 1054.25 227 1057.02 227C1059.79 227 1062.04 229.252 1062.04 232.021C1062.04 234.789 1059.79 237.041 1057.02 237.041Z" fill="white"/>
<path d="M193.018 229.61C191.691 229.61 190.608 230.692 190.608 232.021C190.608 233.35 191.691 234.431 193.018 234.431C194.346 234.431 195.428 233.35 195.428 232.021C195.428 230.692 194.346 229.61 193.018 229.61ZM193.018 237.041C190.252 237.041 188 234.789 188 232.021C188 229.252 190.252 227 193.018 227C195.785 227 198.037 229.252 198.037 232.021C198.037 234.789 195.785 237.041 193.018 237.041Z" fill="white"/>
</svg>
