<svg width="125" height="4" viewBox="0 0 125 4" fill="none" xmlns="http://www.w3.org/2000/svg">
<mask id="path-1-inside-1_211_385" fill="white">
<path d="M0 0.691406H125V3.69141H0V0.691406Z"/>
</mask>
<path d="M125 -0.808594H122.024V2.19141H125V-0.808594ZM119.048 -0.808594H113.095V2.19141H119.048V-0.808594ZM110.119 -0.808594H104.167V2.19141H110.119V-0.808594ZM101.19 -0.808594H95.2381V2.19141H101.19V-0.808594ZM92.2619 -0.808594H86.3095V2.19141H92.2619V-0.808594ZM83.3333 -0.808594H77.381V2.19141H83.3333V-0.808594ZM74.4048 -0.808594H68.4524V2.19141H74.4048V-0.808594ZM65.4762 -0.808594H59.5238V2.19141H65.4762V-0.808594ZM56.5476 -0.808594H50.5952V2.19141H56.5476V-0.808594ZM47.619 -0.808594H41.6667V2.19141H47.619V-0.808594ZM38.6905 -0.808594H32.7381V2.19141H38.6905V-0.808594ZM29.7619 -0.808594H23.8095V2.19141H29.7619V-0.808594ZM20.8333 -0.808594H14.8809V2.19141H20.8333V-0.808594ZM11.9047 -0.808594H5.95237V2.19141H11.9047V-0.808594ZM2.97617 -0.808594H0V2.19141H2.97617V-0.808594ZM125 -2.30859H122.024V3.69141H125V-2.30859ZM119.048 -2.30859H113.095V3.69141H119.048V-2.30859ZM110.119 -2.30859H104.167V3.69141H110.119V-2.30859ZM101.19 -2.30859H95.2381V3.69141H101.19V-2.30859ZM92.2619 -2.30859H86.3095V3.69141H92.2619V-2.30859ZM83.3333 -2.30859H77.381V3.69141H83.3333V-2.30859ZM74.4048 -2.30859H68.4524V3.69141H74.4048V-2.30859ZM65.4762 -2.30859H59.5238V3.69141H65.4762V-2.30859ZM56.5476 -2.30859H50.5952V3.69141H56.5476V-2.30859ZM47.619 -2.30859H41.6667V3.69141H47.619V-2.30859ZM38.6905 -2.30859H32.7381V3.69141H38.6905V-2.30859ZM29.7619 -2.30859H23.8095V3.69141H29.7619V-2.30859ZM20.8333 -2.30859H14.8809V3.69141H20.8333V-2.30859ZM11.9047 -2.30859H5.95237V3.69141H11.9047V-2.30859ZM2.97617 -2.30859H0V3.69141H2.97617V-2.30859Z" fill="#D1D4D7" mask="url(#path-1-inside-1_211_385)"/>
</svg>
