<svg width="133" height="24" viewBox="0 0 133 24" fill="none" xmlns="http://www.w3.org/2000/svg">
<mask id="path-1-inside-1_699_711" fill="white">
<path d="M0 10.6914H125V13.6914H0V10.6914Z"/>
</mask>
<path d="M125 9.19141H122.024V12.1914H125V9.19141ZM119.048 9.19141H113.095V12.1914H119.048V9.19141ZM110.119 9.19141H104.167V12.1914H110.119V9.19141ZM101.19 9.19141H95.2381V12.1914H101.19V9.19141ZM92.2619 9.19141H86.3095V12.1914H92.2619V9.19141ZM83.3333 9.19141H77.381V12.1914H83.3333V9.19141ZM74.4048 9.19141H68.4524V12.1914H74.4048V9.19141ZM65.4762 9.19141H59.5238V12.1914H65.4762V9.19141ZM56.5476 9.19141H50.5952V12.1914H56.5476V9.19141ZM47.619 9.19141H41.6667V12.1914H47.619V9.19141ZM38.6905 9.19141H32.7381V12.1914H38.6905V9.19141ZM29.7619 9.19141H23.8095V12.1914H29.7619V9.19141ZM20.8333 9.19141H14.8809V12.1914H20.8333V9.19141ZM11.9047 9.19141H5.95237V12.1914H11.9047V9.19141ZM2.97617 9.19141H0V12.1914H2.97617V9.19141ZM125 7.69141H122.024V13.6914H125V7.69141ZM119.048 7.69141H113.095V13.6914H119.048V7.69141ZM110.119 7.69141H104.167V13.6914H110.119V7.69141ZM101.19 7.69141H95.2381V13.6914H101.19V7.69141ZM92.2619 7.69141H86.3095V13.6914H92.2619V7.69141ZM83.3333 7.69141H77.381V13.6914H83.3333V7.69141ZM74.4048 7.69141H68.4524V13.6914H74.4048V7.69141ZM65.4762 7.69141H59.5238V13.6914H65.4762V7.69141ZM56.5476 7.69141H50.5952V13.6914H56.5476V7.69141ZM47.619 7.69141H41.6667V13.6914H47.619V7.69141ZM38.6905 7.69141H32.7381V13.6914H38.6905V7.69141ZM29.7619 7.69141H23.8095V13.6914H29.7619V7.69141ZM20.8333 7.69141H14.8809V13.6914H20.8333V7.69141ZM11.9047 7.69141H5.95237V13.6914H11.9047V7.69141ZM2.97617 7.69141H0V13.6914H2.97617V7.69141Z" fill="#D1D4D7" mask="url(#path-1-inside-1_699_711)"/>
<mask id="path-3-inside-2_699_711" fill="white">
<path d="M121 0.871094L132.314 12.1848L121 23.4985L109.686 12.1848L121 0.871094Z"/>
</mask>
<path d="M132.314 12.1848L134.435 14.3061L136.556 12.1848L134.435 10.0635L132.314 12.1848ZM118.879 2.99241L130.192 14.3061L134.435 10.0635L123.121 -1.25023L118.879 2.99241ZM130.192 10.0635L118.879 21.3772L123.121 25.6198L134.435 14.3061L130.192 10.0635Z" fill="#D1D4D7" mask="url(#path-3-inside-2_699_711)"/>
</svg>
