<svg width="1297" height="237" viewBox="0 0 1297 237" fill="none" xmlns="http://www.w3.org/2000/svg">
<path d="M1218.42 225.768L1223.37 234.832L1220.95 236.152L1216.97 228.87L1207.84 230.694L1203.38 222.521L1194.25 224.345L1189.29 215.278L1191.72 213.958L1195.7 221.243L1204.83 219.419L1209.29 227.592L1218.42 225.768Z" fill="white"/>
<path d="M1132.09 119.322L1137.82 139.891L1117.14 134.568L1132.09 119.322Z" fill="white"/>
<path d="M91.0903 119.322L96.8203 139.891L76.1403 134.568L91.0903 119.322Z" fill="white"/>
<path d="M1286.52 137.53C1287.69 135.026 1290.67 133.944 1293.17 135.115C1295.67 136.283 1296.75 139.26 1295.59 141.764C1294.42 144.267 1291.44 145.35 1288.94 144.182C1286.43 143.011 1285.35 140.034 1286.52 137.53Z" fill="white"/>
<path d="M1253.88 36.9784L1246.94 36.6804L1246.65 43.4484L1253.59 43.7474L1253.29 50.6934L1260.06 50.9844L1260.36 44.0384L1267.3 44.3374L1267.6 37.5714L1260.65 37.2724L1260.95 30.3244L1254.18 30.0334L1253.88 36.9784Z" fill="white"/>
<path d="M59.5591 220.702L71.0391 229.146L68.7791 232.214L59.5591 225.428L49.1991 233.043L38.8491 225.428L28.489 233.042L17.009 224.599L19.259 221.532L28.489 228.318L38.8491 220.702L49.1991 228.317L59.5591 220.702Z" fill="white"/>
<path d="M5.01904 44.433C6.34904 44.433 7.42908 43.351 7.42908 42.022C7.42908 40.693 6.34904 39.612 5.01904 39.612C3.68904 39.612 2.60901 40.693 2.60901 42.022C2.60901 43.351 3.68904 44.433 5.01904 44.433ZM5.01904 37.002C7.78904 37.002 10.0391 39.254 10.0391 42.022C10.0391 44.791 7.78904 47.043 5.01904 47.043C2.24904 47.043 -0.000976562 44.791 -0.000976562 42.022C-0.000976562 39.254 2.24904 37.002 5.01904 37.002Z" fill="white"/>
<path d="M240.021 7.43298C241.351 7.43298 242.431 6.35097 242.431 5.02197C242.431 3.69297 241.351 2.61197 240.021 2.61197C238.691 2.61197 237.611 3.69297 237.611 5.02197C237.611 6.35097 238.691 7.43298 240.021 7.43298ZM240.021 0.00198364C242.791 0.00198364 245.041 2.25397 245.041 5.02197C245.041 7.79097 242.791 10.043 240.021 10.043C237.251 10.043 235.001 7.79097 235.001 5.02197C235.001 2.25397 237.251 0.00198364 240.021 0.00198364Z" fill="white"/>
<path d="M1104.02 7.43298C1105.35 7.43298 1106.43 6.35097 1106.43 5.02197C1106.43 3.69297 1105.35 2.61197 1104.02 2.61197C1102.7 2.61197 1101.61 3.69297 1101.61 5.02197C1101.61 6.35097 1102.7 7.43298 1104.02 7.43298ZM1104.02 0.00198364C1106.79 0.00198364 1109.04 2.25397 1109.04 5.02197C1109.04 7.79097 1106.79 10.043 1104.02 10.043C1101.26 10.043 1099 7.79097 1099 5.02197C1099 2.25397 1101.26 0.00198364 1104.02 0.00198364Z" fill="white"/>
</svg>
