<svg width="64" height="65" viewBox="0 0 64 65" fill="none" xmlns="http://www.w3.org/2000/svg">
<path d="M16.372 60.1914H47.628C50.908 60.1875 54.0528 58.8823 56.3721 56.5635C58.6909 54.2442 59.9961 51.0994 60 47.8194V16.5634C59.9961 13.2834 58.6909 10.1386 56.3721 7.81934C54.0528 5.50048 50.908 4.19532 47.628 4.19141H16.372C13.092 4.19533 9.94723 5.50048 7.62793 7.81934C5.30907 10.1386 4.00391 13.2834 4 16.5634V47.8194C4.00392 51.0994 5.30907 54.2442 7.62793 56.5635C9.94723 58.8823 13.092 60.1875 16.372 60.1914ZM7.907 16.5636C7.90961 14.3193 8.8022 12.1678 10.3894 10.581C11.9762 8.99378 14.1276 8.1012 16.372 8.09863H47.628C49.8723 8.10125 52.0238 8.99384 53.6106 10.581C55.1979 12.1678 56.0904 14.3192 56.093 16.5636V47.8196C56.0904 50.0639 55.1978 52.2154 53.6106 53.8022C52.0238 55.3895 49.8724 56.2821 47.628 56.2846H16.372C14.1277 56.282 11.9762 55.3894 10.3894 53.8022C8.80215 52.2154 7.90957 50.064 7.907 47.8196V16.5636Z" fill="white" stroke="white" stroke-width="0.5"/>
<path d="M21.5824 47.1673C22.1004 47.1673 22.5971 46.9615 22.9638 46.5952C23.3301 46.2285 23.5359 45.7319 23.5359 45.2138V42.6089C23.5359 39.5849 25.1493 36.7902 27.7682 35.278C30.3876 33.7658 33.6143 33.7658 36.2337 35.278C38.8526 36.7902 40.4659 39.5849 40.4659 42.6089V45.2138C40.4659 45.9115 40.8383 46.5564 41.4427 46.9052C42.0471 47.2545 42.7918 47.2545 43.3962 46.9052C44.0006 46.5564 44.3729 45.9115 44.3729 45.2138V42.6089C44.3651 40.436 43.7825 38.3038 42.685 36.4283C41.587 34.5529 40.0128 33.001 38.1217 31.9301C40.2358 30.23 41.5477 27.7275 41.7431 25.0217C41.9384 22.3159 40.9996 19.6509 39.1521 17.6647C37.3041 15.679 34.7135 14.5508 32.0009 14.5508C29.2884 14.5508 26.6977 15.6788 24.8498 17.6647C23.0022 19.6509 22.0634 22.3161 22.2588 25.0217C22.4541 27.7274 23.7662 30.2298 25.8801 31.9301C23.989 33.001 22.4148 34.5529 21.3169 36.4283C20.2193 38.3038 19.6367 40.436 19.6289 42.6089V45.2138C19.6289 45.7319 19.8347 46.2285 20.201 46.5952C20.5673 46.9615 21.064 47.1673 21.5824 47.1673ZM26.1404 24.3762C26.1404 22.8216 26.7579 21.3313 27.8567 20.2319C28.956 19.1331 30.4464 18.5157 32.0009 18.5157C33.5555 18.5157 35.0458 19.1331 36.1451 20.2319C37.244 21.3312 37.8614 22.8216 37.8614 24.3762C37.8614 25.9307 37.244 27.421 36.1451 28.5204C35.0459 29.6192 33.5555 30.2367 32.0009 30.2367C30.4468 30.2353 28.9573 29.6175 27.8585 28.5186C26.7597 27.4197 26.1418 25.9301 26.1404 24.3762Z" fill="white" stroke="white" stroke-width="0.5"/>
</svg>
