<svg width="64" height="65" viewBox="0 0 64 65" fill="none" xmlns="http://www.w3.org/2000/svg">
<path d="M59.6401 59.8495H57.0693V22.5289C57.0693 20.7922 55.6555 19.3789 53.9192 19.3789H48.1738C46.437 19.3789 45.0237 20.7927 45.0237 22.5289V59.8495H38.4974V39.4392C38.4974 37.7015 37.0835 36.2892 35.3473 36.2892H29.6018C27.8651 36.2892 26.4518 37.703 26.4518 39.4392V59.8495H19.9254V49.2783C19.9254 47.5416 18.5116 46.1283 16.7754 46.1283H11.0299C9.29315 46.1283 7.87983 47.5421 7.87983 49.2783V59.8495H5.17156C4.52459 59.8495 4 60.3736 4 61.021C4 61.668 4.52409 62.1926 5.17156 62.1926H59.6399C60.2869 62.1926 60.8115 61.6685 60.8115 61.021C60.8115 60.3736 60.2874 59.8505 59.6404 59.8505L59.6401 59.8495ZM17.5832 59.8495H10.2253V49.2783C10.2253 48.8335 10.5869 48.4719 11.0317 48.4719H16.7772C17.222 48.4719 17.5836 48.8335 17.5836 49.2783L17.5832 59.8495ZM36.1549 59.8495H28.7969L28.7964 39.438C28.7964 38.9921 29.158 38.6315 29.6029 38.6315H35.3484C35.7932 38.6315 36.1558 38.9931 36.1558 39.438L36.1549 59.8495ZM54.7253 59.8495H47.3673V22.5289C47.3673 22.0841 47.7289 21.7225 48.1738 21.7225H53.9193C54.3651 21.7225 54.7257 22.0841 54.7257 22.5289L54.7253 59.8495Z" fill="white" stroke="white"/>
<path d="M57.0677 3.42466C57.0842 3.10518 56.9714 2.7797 56.7272 2.53545C56.4829 2.29121 56.1574 2.17837 55.8379 2.19492C55.8194 2.19392 55.8003 2.19141 55.7818 2.19141H48.6927C48.0447 2.19141 47.5211 2.7155 47.5211 3.36297C47.5211 4.00995 48.0452 4.53554 48.6927 4.53554H53.0695L41.4849 16.1207L37.1156 11.7515C36.8954 11.5313 36.598 11.4084 36.2871 11.4084C35.9761 11.4084 35.6787 11.5323 35.4586 11.7515L14.3923 32.8178C13.9344 33.2757 13.9344 34.0179 14.3923 34.4758C14.6215 34.7035 14.9209 34.8188 15.2208 34.8188C15.5207 34.8188 15.8201 34.705 16.0493 34.4758L36.2875 14.2376L40.6557 18.6069C41.1136 19.0648 41.8559 19.0648 42.3137 18.6069L54.726 6.19306V10.1551C54.726 10.802 55.2501 11.3266 55.8976 11.3266C56.5446 11.3266 57.0701 10.8025 57.0701 10.1551V3.48081C57.0701 3.46225 57.0677 3.44322 57.0677 3.42466Z" fill="white" stroke="white"/>
</svg>
