<svg width="64" height="65" viewBox="0 0 64 65" fill="none" xmlns="http://www.w3.org/2000/svg">
<path d="M57.2719 6.91002C54.2474 3.88834 50.1471 2.19141 45.8721 2.19141C41.5972 2.19141 37.4969 3.88834 34.4729 6.91002L24.5579 16.825C24.0415 17.3592 23.8453 18.1258 24.0415 18.8416C24.2373 19.5579 24.7968 20.1179 25.5126 20.3147C26.229 20.5113 26.9955 20.3156 27.5302 19.8002L37.4452 9.88517C40.4561 6.87479 44.8436 5.6994 48.9562 6.80208C53.0683 7.90427 56.2805 11.1164 57.3822 15.229C58.4835 19.3416 57.3076 23.7296 54.2967 26.74L44.3846 36.6522C43.979 37.0441 43.748 37.5825 43.7434 38.1468C43.7387 38.7106 43.9612 39.2532 44.3602 39.6517C44.7592 40.0503 45.3018 40.2718 45.8655 40.2667C46.4298 40.2615 46.9682 40.0301 47.3597 39.624L57.2719 29.7119C60.3052 26.6931 62.0107 22.5908 62.0107 18.3112C62.0107 14.0316 60.3053 9.92882 57.2719 6.91002Z" fill="white"/>
<path d="M6.71239 57.4738C9.73683 60.4955 13.8376 62.1929 18.1131 62.1929C22.3885 62.1929 26.4893 60.4955 29.5142 57.4738L39.4293 47.5588C39.9456 47.0246 40.1414 46.2581 39.9456 45.5422C39.7494 44.8259 39.1903 44.2659 38.474 44.0691C37.7582 43.8725 36.9911 44.0682 36.4569 44.5836L26.5419 54.4986C23.5311 57.5095 19.1426 58.6854 15.03 57.5832C10.9169 56.481 7.70474 53.2688 6.60254 49.1557C5.50035 45.0432 6.67624 40.6546 9.68707 37.6438L19.6021 27.7316C20.102 27.1951 20.2865 26.4366 20.0884 25.7301C19.8898 25.0236 19.3378 24.4715 18.6318 24.2735C17.9254 24.0754 17.1668 24.2594 16.6298 24.7598L6.71248 34.6715C3.69464 37.6987 2 41.7987 2 46.0726C2 50.3466 3.69455 54.4466 6.71239 57.4738Z" fill="white"/>
<path d="M34.473 26.7397L26.5403 34.6695C26.123 35.0586 25.8813 35.6003 25.8714 36.1706C25.8611 36.741 26.0836 37.2911 26.4868 37.6949C26.8905 38.0981 27.4407 38.3206 28.0111 38.3103C28.5814 38.3004 29.1236 38.0587 29.5127 37.6414L37.4454 29.7116C37.8632 29.3225 38.104 28.7807 38.1138 28.2104C38.1242 27.64 37.9021 27.0899 37.4984 26.6861C37.0947 26.2829 36.5446 26.0604 35.9742 26.0707C35.4039 26.0806 34.8617 26.3224 34.473 26.7397Z" fill="white"/>
<path d="M16.1319 18.4323C16.6891 18.4318 17.2238 18.2098 17.6176 17.8155C18.0114 17.4216 18.233 16.887 18.233 16.3293C18.233 15.7721 18.0119 15.2375 17.6181 14.8432L13.6534 10.8813C13.2713 10.4368 12.7216 10.1715 12.1358 10.1499C11.5504 10.1279 10.9824 10.3513 10.5689 10.7663C10.1549 11.1812 9.9333 11.7502 9.95677 12.3356C9.97977 12.921 10.2464 13.4702 10.6923 13.8503L14.6457 17.8184C15.0395 18.2127 15.5743 18.4337 16.1319 18.4323Z" fill="white"/>
<path d="M22.0796 6.15234C21.5219 6.15234 20.9873 6.37391 20.5929 6.76821C20.1982 7.16251 19.9766 7.69719 19.9766 8.25532V13.8635C19.9766 14.615 20.3775 15.3088 21.0281 15.6843C21.6787 16.0598 22.4805 16.0598 23.1311 15.6843C23.7817 15.3088 24.1826 14.6145 24.1826 13.863V8.25485C24.1826 7.69672 23.961 7.16251 23.5667 6.76821C23.1724 6.37391 22.6377 6.15234 22.0796 6.15234Z" fill="white"/>
<path d="M5.95703 22.2749C5.95703 22.8325 6.1786 23.3677 6.57291 23.762C6.96721 24.1563 7.50235 24.3779 8.06002 24.3779H13.6682C14.4197 24.3779 15.1135 23.977 15.489 23.3264C15.8645 22.6758 15.8645 21.874 15.489 21.2234C15.1135 20.5728 14.4192 20.1719 13.6677 20.1719H8.05955C7.50188 20.1719 6.96721 20.3935 6.57291 20.7878C6.1786 21.1826 5.95703 21.7172 5.95703 22.2749Z" fill="white"/>
<path d="M50.3336 53.5024C50.864 54.0351 51.638 54.244 52.3642 54.0506C53.0909 53.8577 53.6588 53.2916 53.8546 52.5659C54.0503 51.8407 53.8442 51.0657 53.3138 50.5334L49.3491 46.5658C48.8177 46.0344 48.0432 45.8265 47.317 46.0208C46.5913 46.2156 46.0243 46.7827 45.8295 47.5084C45.6351 48.2346 45.8426 49.0091 46.374 49.5405L50.3336 53.5024Z" fill="white"/>
<path d="M58.0304 42.1069C58.0304 41.5492 57.8088 41.0141 57.4145 40.6198C57.0202 40.2255 56.4855 40.0039 55.9274 40.0039H50.3193C49.5677 40.0039 48.874 40.4048 48.4985 41.0554C48.1229 41.706 48.1229 42.5078 48.4985 43.1584C48.874 43.809 49.5682 44.2099 50.3198 44.2099H55.9279C56.486 44.2099 57.0202 43.9883 57.4145 43.594C57.8088 43.1992 58.0304 42.6646 58.0304 42.1069Z" fill="white"/>
<path d="M44.0087 56.1246V50.5165C44.0087 49.765 43.6078 49.0712 42.9572 48.6957C42.3066 48.3202 41.5048 48.3202 40.8542 48.6957C40.2036 49.0712 39.8027 49.7655 39.8027 50.517V56.1251C39.8027 56.8767 40.2036 57.5704 40.8542 57.9459C41.5048 58.3215 42.3066 58.3215 42.9572 57.9459C43.6078 57.5704 44.0087 56.8761 44.0087 56.1246Z" fill="white"/>
</svg>
