<svg width="64" height="65" viewBox="0 0 64 65" fill="none" xmlns="http://www.w3.org/2000/svg">
<path d="M58.2027 27.9142H56.9062V26.3943C56.9062 21.667 54.2021 17.5658 50.2603 15.5322C50.0226 9.79607 45.3178 5.19186 39.5231 5.19186L8.30382 5.19141C4.85687 5.19141 2.05661 7.97591 2.01393 11.4125C2.01393 11.4368 2 11.457 2 11.479V11.497V11.501V11.5051V46.0596C2 52.8043 7.49445 58.2903 14.2514 58.2903H44.6735C51.4181 58.2903 56.9042 52.804 56.9042 46.0596V44.5258H58.203C60.2967 44.5258 62 42.8225 62 40.7288V31.711C62 29.6172 60.2964 27.9142 58.2027 27.9142ZM8.30428 8.81402H39.5213C42.8936 8.81402 45.7123 11.1657 46.4655 14.3125C45.8714 14.224 45.2696 14.1633 44.6535 14.1633H8.32142C8.31558 14.1633 8.31153 14.1615 8.30749 14.1615C6.83384 14.1615 5.63401 12.9615 5.63401 11.488C5.63356 10.014 6.83396 8.81407 8.3053 8.81407L8.30428 8.81402ZM53.2822 46.063C53.2822 50.8082 49.4205 54.6699 44.6752 54.6699H14.2532C9.49571 54.6699 5.62597 50.8082 5.62597 46.063V17.1918C6.42951 17.5702 7.41369 17.7859 8.30347 17.7859H44.6539C49.4114 17.7859 53.2811 21.6476 53.2811 26.3928V27.9127H46.0633C41.4847 27.9127 37.7582 31.6392 37.7582 36.2178C37.7582 40.7963 41.4847 44.5229 46.0633 44.5229H53.2811L53.2822 46.063ZM58.3757 40.73C58.3757 40.8248 58.297 40.903 58.2026 40.903H46.0628C43.4818 40.903 41.3818 38.8029 41.3818 36.2219C41.3818 33.6409 43.4818 31.5391 46.0628 31.5391H58.2026C58.2975 31.5391 58.3757 31.6178 58.3757 31.7122V40.73Z" fill="white"/>
<path d="M45.7713 34.2031C44.6558 34.2031 43.7539 35.1073 43.7539 36.2205C43.7539 37.3336 44.6581 38.2378 45.7713 38.2378C46.8867 38.2378 47.7886 37.3336 47.7886 36.2205C47.7886 35.1069 46.8867 34.2031 45.7713 34.2031Z" fill="white"/>
</svg>
