<svg width="343" height="279" viewBox="0 0 343 279" fill="none" xmlns="http://www.w3.org/2000/svg">
<path opacity="0.5" d="M248.227 0L245 11.5835L256.646 8.58583L248.227 0Z" fill="white"/>
<path opacity="0.5" d="M320.709 61.8855L312.908 63.7688L313.413 65.8545L319.679 64.3397L323.4 70.5516L330.434 68.8525L334.154 75.0639L341.956 73.1812L341.456 71.0982L335.184 72.6108L331.464 66.3984L324.43 68.0974L320.709 61.8855Z" fill="white"/>
<path opacity="0.5" d="M324.819 30.0209C324.07 30.0209 323.462 29.4116 323.462 28.6631C323.462 27.9147 324.07 27.3059 324.819 27.3059C325.568 27.3059 326.176 27.9147 326.176 28.6631C326.176 29.4116 325.568 30.0209 324.819 30.0209ZM324.819 25.8361C323.259 25.8361 321.992 27.1043 321.992 28.6631C321.992 30.2225 323.259 31.4907 324.819 31.4907C326.379 31.4907 327.646 30.2225 327.646 28.6631C327.646 27.1043 326.379 25.8361 324.819 25.8361Z" fill="white"/>
<path opacity="0.5" d="M260.819 43.185C260.07 43.185 259.462 42.5756 259.462 41.8272C259.462 41.0788 260.07 40.47 260.819 40.47C261.568 40.47 262.176 41.0788 262.176 41.8272C262.176 42.5756 261.568 43.185 260.819 43.185ZM260.819 39.0002C259.259 39.0002 257.992 40.2684 257.992 41.8272C257.992 43.3866 259.259 44.6548 260.819 44.6548C262.379 44.6548 263.646 43.3866 263.646 41.8272C263.646 40.2684 262.379 39.0002 260.819 39.0002Z" fill="white"/>
<path opacity="0.5" d="M10.6507 136.85L6.66367 132.616L5.53327 133.683L8.73684 137.084L6.16415 141.653L9.75939 145.47L7.18687 150.039L11.1743 154.277L12.3047 153.21L9.1006 149.806L11.6733 145.237L8.07806 141.42L10.6507 136.85Z" fill="white"/>
<path opacity="0.5" d="M17.8352 199.051L7.82617 192.386L7.0602 204.388L17.8352 199.051Z" fill="white"/>
<path opacity="0.5" d="M61.6263 211.735C63.1713 211.547 64.2708 210.143 64.082 208.597C63.8939 207.054 62.489 205.955 60.9442 206.143C59.3997 206.332 58.2997 207.736 58.4878 209.279C58.6764 210.825 60.0814 211.924 61.6263 211.735Z" fill="white"/>
<path opacity="0.5" d="M93.7231 273.177L92.6687 276.946L88.9949 275.918L90.0488 272.149L86.2779 271.095L87.3049 267.422L91.0758 268.476L92.1297 264.706L95.8035 265.731L94.7496 269.5L98.5205 270.557L97.4934 274.23L93.7231 273.177Z" fill="white"/>
<path opacity="0.5" d="M315.968 113.652L317.755 117.134L314.361 118.876L312.573 115.394L309.09 117.182L307.349 113.789L310.832 112.001L309.045 108.518L312.436 106.774L314.224 110.257L317.709 108.471L319.451 111.864L315.968 113.652Z" fill="white"/>
<path opacity="0.5" d="M31.9829 259.528C32.2149 258.818 32.9834 258.427 33.6949 258.66C34.4063 258.892 34.7957 259.661 34.5637 260.371C34.3316 261.082 33.5637 261.472 32.8523 261.24C32.1408 261.008 31.7507 260.239 31.9829 259.528ZM35.9609 260.827C36.4445 259.347 35.6326 257.747 34.1508 257.263C32.6685 256.779 31.0692 257.591 30.5857 259.072C30.1019 260.553 30.9138 262.153 32.3962 262.637C33.878 263.121 35.4772 262.309 35.9609 260.827Z" fill="white"/>
</svg>
